<?xml version="1.0" encoding="UTF-8"?>
<svg id="Layer_1" data-name="Layer 1" xmlns="http://www.w3.org/2000/svg" viewBox="0 0 1078.09 591.69">
  <defs>
    <style>
      .cls-1 {
        stroke: #e8d8b8;
      }

      .cls-1, .cls-2, .cls-3, .cls-4, .cls-5 {
        fill: none;
        stroke-miterlimit: 10;
        stroke-width: 5px;
      }

      .cls-2 {
        stroke: #d4015a;
      }

      .cls-3 {
        stroke: #ebd8b8;
      }

      .cls-4 {
        stroke: #ebd8b9;
      }

      .cls-5 {
        stroke: #e8d8b9;
      }
    </style>
  </defs>
  <path class="cls-4" d="M660.86,286.94c-2.96,16.46-5.85,32.92-8.88,49.37-6.53,35.48-11.54,71.33-20.01,106.34-18.25,75.44-64.86,123.89-141.85,140.11-31.54,6.65-63.52,5.33-95.19-1.03-2.92-.59-5.56-.83-4.84-5.35,3.81-23.8,7.43-47.63,10.78-71.49.54-3.84,1.65-4.46,5.31-4.32,20.57.79,41.04.61,61.02-5.67,30.68-9.65,49.15-31.09,59.84-60.46,10.57-29.03,15.97-59.29,21.24-89.55,7.92-45.45,15.65-90.93,23.27-136.43,6.58-39.33,12.81-78.73,19.36-118.07,3.84-23.08,8-46.11,12.06-69.16.19-1.07.75-2.08,1.13-3.12,1.34-4.94,4.21-6.66,9.63-6.64,66.2.22,132.4.13,198.6.18,3.33,0,7.6-1.28,8.34,4.17-3.03,19.15-6.03,38.3-9.09,57.44-1.52,9.48-3.37,18.9-4.62,28.41-.59,4.47-2.37,5.6-6.8,5.58-33.35-.21-66.7.08-100.04-.26-6.79-.07-9.3,1.24-10.38,8.67-3.47,24.04-8,47.93-12.55,71.8-.97,5.09.21,5.92,4.95,5.89,28.65-.18,57.3.02,85.94-.15,4.9-.03,5.73.92,4.82,6.01-4.72,26.32-8.85,52.75-13.19,79.14-.46,2.82-.62,5.71-2.34,8.16-2.05-1.24-4.33-.9-6.53-.9-27.67-.02-55.33-.03-83,.02-2.38,0-4.96-.67-6.99,1.34Z"/>
  <path class="cls-4" d="M841.71,311.08c13.65,0,27.31.24,40.96-.11,5.69-.15,7.31.81,5.39,6.87-3.03,9.55-5.52,19.3-5.41,29.54.16,15.38,7.74,25.45,22.49,29.25,14.78,3.81,29.97-1.9,36.2-14.69,10.54-21.66,7.17-42.05-7.27-60.9-15.86-20.7-35.38-37.93-53.57-56.41-10.35-10.52-20.59-21.11-29.93-32.59-16.45-20.22-24.71-43.02-24.76-69.16-.04-23.35,4.24-45.74,12.33-67.51,13.22-35.59,39.25-57.06,75.36-66.09,38.24-9.57,76.51-9.7,114.03,4.28,28.34,10.55,46.58,35.98,47.95,68.85.8,19.32-2.36,38.31-5.49,57.28-.56,3.4-2.02,4.96-5.73,4.95-27.08-.09-54.17-.07-81.25.12-4.01.03-4.45-1.38-3.63-4.77,1.71-7.15,3.51-14.3,4.61-21.56,2.52-16.66-5.88-29.67-20.97-33.18-16.12-3.75-31.13,4.31-36.27,19.8-4.15,12.5-3.02,24.57,3.73,36.06,9.69,16.49,24.5,28.36,37.5,41.86,18.44,19.16,38.79,36.45,55.03,57.78,21.3,27.98,27.68,59.33,23.37,93.64-2.52,20.08-7.13,39.44-16.21,57.67-14.58,29.3-37.38,49.44-68.07,60.13-42.83,14.92-85.96,15.72-128.35-1.47-32.29-13.1-47.2-38.9-48.58-72.88-.86-21.35,3.78-42.12,8.05-62.91.79-3.85,2.72-3.85,5.55-3.84,14.33.05,28.65.02,42.98.03Z"/>
  <path class="cls-2" d="M463.12,445.33c-2.7,1.73-6,2.52-8.1,5.18-10.37,5.42-21.29,8.93-33.03,9.66-9.9.48-19.64,2.61-29.67,2.16-7.49-.33-14.66-3.5-22.26-2.17-1.57-.01-3.15.03-4.72-.13-7.48-3.23-15.84-2.48-23.46-5.17-1.57-.55-3.52-.04-4.82-1.57h0q-12.9-3.24-12.19-16.97c.12-2.4-.56-4.98,1.43-7.01.02-.83.05-1.67.07-2.5.46-10.57,2.76-20.92,4.22-31.35,1.51-10.82,3.61-21.59,5.17-32.43.24-1.63,1.42-2.72,2.29-4,2.73-1.59,5.64-1.17,8.37-.31,14.06,4.44,28.39,2.79,42.66,1.9,3.47-.22,6.43-2.69,9.74-3.86,6.29-3.48,10.37-8.89,13.19-15.34,6.25-14.29,8.17-29.64,10.75-44.81,3.41-20.02,6.77-40.05,10.06-60.08,4.81-29.32,9.49-58.67,14.3-87.99,3.98-24.23,8.08-48.45,12.09-72.67,3.18-19.17,6.4-38.34,9.41-57.54.85-5.4,2.7-8.15,8.97-8.08,28.65.32,57.3.31,85.95.02,6.55-.07,8.27,2.17,7.19,8.27-3.34,18.92-6.48,37.87-9.64,56.82-4.04,24.23-7.98,48.48-12.07,72.7-2.94,17.38-6.11,34.72-9.09,52.09-4.11,23.99-8,48.02-12.21,71.99-5.64,32.08-10.12,64.37-18,96.06-4.05,16.31-8.6,32.25-17.05,46.84-2.33,4.03-5.32,7.68-8,11.51-3.19,5.77-7.99,9.92-13.46,13.39h0c-2.15,2.6-5.23,3.81-8.07,5.37Z"/>
  <path class="cls-3" d="M356.37,532.26c.54,30.58-23.63,55.57-53.32,56.87-33.6,1.47-59.1-24.14-60.68-53.18-2.05-37.56,28.71-60.22,53.85-60.64,34.9-.58,59.56,22.84,60.16,56.95Z"/>
  <path class="cls-2" d="M353.19,67.03c-3.93-22.93-16.07-39.33-37.86-47.97-13.4-5.31-27.49-8.03-41.85-8.41-17.89-.48-35.8-.23-53.7-.24-38.71,0-77.43.14-116.14-.08-6.51-.04-9.84,1.55-10.3,8.63-.4,6.18-2.23,12.27-3.29,18.42-4.72,27.28-9.35,54.57-14.08,81.84-6.22,35.81-12.46,71.61-18.77,107.4-6.78,38.45-13.77,76.87-20.47,115.33-5.94,34.08-11.62,68.21-17.37,102.32-1.51,8.97-1.38,9.08,7.66,9.08,48.56,0,97.12-.25,145.68.04,20.28.12,40.14-1.85,59.52-7.92,28.29-8.87,50.82-25.05,65.7-51.26,8.58-15.12,13.28-31.55,17.6-48.17,1.37-7.32,4.45-14.29,4.04-21.97-.2-3.75-.19-7.52.53-11.29,3.43-17.97.93-35.43-4.84-52.58-5.52-11.87-12.7-22.38-24.07-29.46-6.6-5.47-15.53-5.92-22.33-10.58,4.11.29,6.85-3.28,10.68-4.58,8.82-3,17.61-6.34,25.08-12.22,7.45-6.88,15.68-12.89,21.86-21.16,11-14.69,18.25-30.96,22.5-48.79,5.23-21.92,8.1-43.87,4.24-66.36ZM213.37,340.21c-4.42,10.03-11.93,16.96-21.6,21.76-9.3,4.3-19.16,4.53-29.15,4.22-6.87-.21-13.76-.05-20.64-.04-4.2,0-6.46-1.97-5.68-6.15.83-4.41-.03-8.88.95-13.24,3.74-4.85,3.43-11.14,4.14-16.47,1.69-12.72,4.83-25.17,6.47-37.9,1-7.81,1.62-15.84,4.35-23.44,1.19-3.32,3-4.21,6.37-4.28,14.02-.29,27.88,1.87,41.85,2.31,3.54.11,6.86,2.64,10.39,3.75,6.71,3.79,10.13,9.7,10.75,17.24,1.5,18.07-.85,35.55-8.22,52.24ZM241.15,160.31c-6.62,12.61-17.21,19.67-31.12,21.51-6.61.87-13.37.7-20.06,1.01,0-.09,0-.18-.01-.27-5.36,0-10.73-.17-16.08.05-5.04.21-6.95-1.88-6.07-6.82,1.93-10.74,3.72-21.5,5.66-32.24,2.45-13.56,5.14-27.08,7.43-40.66.71-4.2,2.37-6.61,6.8-6.5,13.58.35,27.2-.96,40.69,2.18,13,3.03,19.24,9.71,20.04,22.86.83,13.57-.88,26.67-7.3,38.89Z"/>
  <path class="cls-5" d="M616.7,554.59c6.77-8.17,12.72-15.06,18.3-22.22,2.19-2.81,4.82-2.72,7.74-2.72,75.61.02,151.22,0,226.83.06,50.55.04,101.11.6,151.65-.81,5.79-.16,8.97.23,6.43,7.31-1.55,4.34-1.99,9.14-2.45,13.78-.4,3.98-2.17,5.04-6.03,4.95-13.19-.31-26.39-.33-39.59-.33-118.56-.02-237.12-.01-355.68-.01-1.96,0-3.92,0-7.2,0Z"/>
  <path class="cls-1" d="M2.56,551.34c.69-5.75,1.55-11.49,2.01-17.26.38-4.66,2.67-5.52,7.04-5.41,65.97,1.64,131.94,1.79,197.91.12,5.06-.13,6.93.84,6.36,6.01-.67,5.96.79,12.07-1.14,17.97-12.87,1.56-25.77.68-38.66.46-2.65-.05-5.33-.36-8.01-.36-42.66-.01-85.32-.18-127.97.12-10.46.07-20.95.17-31.41.95-2.56.19-4.98.41-6.14-2.58Z"/>
</svg>